<svg xmlns="http://www.w3.org/2000/svg" xmlns:xlink="http://www.w3.org/1999/xlink" viewBox="0 0 1366 768"><defs><style>.cls-1{opacity:0.6;}.cls-2{fill:url(#Unbenannter_Verlauf_137);}.cls-3{font-size:50px;fill:#8770d6;font-family:TitilliumWeb-SemiBoldItalic, Titillium Web;font-weight:700;font-style:italic;letter-spacing:0.06em;}.cls-4{fill-opacity:0.45;opacity:0.63;}.cls-5{font-size:35px;font-family:Roboto-Regular, Roboto;}.cls-5,.cls-7,.cls-8{fill:#fff;}.cls-6{letter-spacing:-0.01em;}.cls-7{opacity:0.7;}.cls-8{opacity:0.21;}</style><linearGradient id="Unbenannter_Verlauf_137" x1="358.83" y1="783.68" x2="997.8" y2="0.72" gradientUnits="userSpaceOnUse"><stop offset="0" stop-color="#462ca5"/><stop offset="0.05" stop-color="#412998"/><stop offset="0.18" stop-color="#321f76"/><stop offset="0.32" stop-color="#28185e"/><stop offset="0.44" stop-color="#21144f"/><stop offset="0.54" stop-color="#1f134a"/><stop offset="0.64" stop-color="#21144e"/><stop offset="0.73" stop-color="#261759"/><stop offset="0.83" stop-color="#2e1d6d"/><stop offset="0.92" stop-color="#392488"/><stop offset="1" stop-color="#462ca5"/></linearGradient></defs><title>quizzard_design-01</title><g id="menu-"><rect width="1366" height="768"/><rect class="cls-2" x="2" width="1366" height="768"/></g><g id="menu--2" data-name="menu-"><text class="cls-3" transform="translate(144 139)">SETTINGS</text><rect class="cls-4" x="122" y="171" width="1121" height="454" rx="22" ry="22"/></g><g id="menu--3" data-name="menu-"><text class="cls-5" transform="translate(188 254)"><tspan class="cls-6">E</tspan><tspan x="20" y="0">quipos:</tspan></text><path class="cls-7" d="M418,228h48a0,0,0,0,1,0,0v28a0,0,0,0,1,0,0H418a9,9,0,0,1-9-9V237A9,9,0,0,1,418,228Z"/><rect class="cls-7" x="468" y="228" width="57" height="28"/><path class="cls-8" d="M527,228h49a8,8,0,0,1,8,8v11a8,8,0,0,1-8,8H527a0,0,0,0,1,0,0V228A0,0,0,0,1,527,228Z"/></g></svg>